# xmcd
#
# Track frame offsets:
#	150
#	33231
#	48914
#	91345
#	104756
#	123834
#	159317
#	174704
#
# Disc length: 2569 seconds
# Revision: 0
# Processed by: cddbd v1.5.2PL0 Copyright (c) Steve Scherf et al.
# Submitted via: dBpowerAMP V12.0
#
DISCID=5e0a0708
DTITLE=Roy Buchanan - Live in Japan
DYEAR=1978
DGENRE=Blues
TTITLE0=Soul Dressing
TTITLE1=Sweet Honey Dew
TTITLE2=Hey Joe
TTITLE3=Slow Down
TTITLE4=Lonely Days Lonely Nights
TTITLE5=Blues Otani
TTITLE6=My Baby Says She's Gonna Leave Me
TTITLE7=Sweet Dreams
EXTD=
EXTT0=
EXTT1=
EXTT2=
EXTT3=
EXTT4=
EXTT5=
EXTT6=
EXTT7=
PLAYORDER=
